<?xml version="1.0" encoding="UTF-8"?>
<svg id="Layer_2" data-name="Layer 2" xmlns="http://www.w3.org/2000/svg" xmlns:xlink="http://www.w3.org/1999/xlink" viewBox="0 0 89.37 133.6">
  <defs>
    <style>
      .cls-1 {
        fill: url(#linear-gradient-2);
      }

      .cls-2 {
        fill: url(#linear-gradient);
      }
    </style>
    <linearGradient id="linear-gradient" x1="44.68" y1="130.04" x2="44.68" y2="-7.97" gradientUnits="userSpaceOnUse">
      <stop offset="0" stop-color="#055676"/>
      <stop offset="1" stop-color="#00e9d7"/>
    </linearGradient>
    <linearGradient id="linear-gradient-2" x1="16.52" y1="36.51" x2="71.71" y2="119.71" xlink:href="#linear-gradient"/>
  </defs>
  <g id="Layer_1-2" data-name="Layer 1">
    <g>
      <path class="cls-2" d="M21.58,133.6c-14.39,0-21.58-7.56-21.58-22.7V22.89C0,7.63,7.13,0,21.4,0h46.57c14.26,0,21.4,7.63,21.4,22.89v88.01c0,15.14-7.2,22.7-21.58,22.7H21.58ZM23.23,121.41h43.97c5.37,0,8.06-2.81,8.06-8.43V20.63c0-5.62-3.04-8.43-9.12-8.43H23.02c-5.94,0-8.91,2.81-8.91,8.43v92.35c0,5.62,3.04,8.43,9.12,8.43Z"/>
      <path class="cls-1" d="M37.19,74.76l.14,15.08.42,13.84.42,1.25.14,11.48-5.53,2.21-9.13-.83.83-22,2.08-5.4-1.25-1.8v-5.4l-.55-16.19-.28-7.19,1.11-2.77-.69-26.43-.55-11.9,10.93-4.43,22,19.1.83,3.46c.14.14,2.35-.55,2.49-.55l6.64,6.09-.97,8.3-6.36,7.75-4.43,5.26-2.35,2.91-3.87,5.26c.97,1.94,2.63,4.29,3.46,5.95v2.35c1.11,1.25,1.94,1.94,2.91,3.32l5.53,9.41v1.8l.83.42,1.94,4.01v-.14l2.49,5.26,4.57,4.84-.14,4.01-11.21,6.23-3.32-5.4-4.84-11.07.14-2.35-1.66-.83-5.12-9.69-1.25-3.18-5.53-11.21-.83-.83ZM37.19,67.7l.97-.55,6.92-8.58c1.94-2.35,5.26-6.64,7.06-9.13l1.52-1.94-2.77-3.46-.97-.69-12.73-12.59-.28,10.65v1.38l-1.11,2.63.55,2.49.28.83.28,1.52.55,12.31-.28,5.12Z"/>
    </g>
  </g>
</svg>